<?xml version="1.0" encoding="UTF-8" standalone="no"?>
<svg id="Layer_1" viewBox="0 0 251.34 222.81" xmlns="http://www.w3.org/2000/svg" data-name="Layer 1">
 <defs>
  <style>.cls-1{fill:#01d277;}</style>
 </defs>
 <title>PrimaryLogo_Green</title>
 <path transform="translate(-2717.7 -2028.1)" class="cls-1" d="m2944.6 2236.3c14.6 0 24.48-9.88 24.48-24.48v-159.2c0-14.6-9.88-24.48-24.48-24.48h-202.4c-14.6 0-24.48 9.88-24.48 24.48v198.33l12.56-14.56v-183.7a11.94 11.94 0 0 1 11.92 -11.92h202.37a11.94 11.94 0 0 1 11.92 11.92v159.28a11.94 11.94 0 0 1 -11.92 11.92h-183.8l-12.56 12.56-0.08-0.1"/>
 <polygon points="61.38 77.29 68.32 77.29 68.32 49.52 76.96 49.52 76.96 42.63 52.74 42.63 52.74 49.52 61.38 49.52" class="cls-1"/>
 <polygon points="99.53 77.29 106.47 77.29 106.47 42.58 99.53 42.58 99.53 56.46 89.14 56.46 89.14 42.58 82.2 42.58 82.2 77.29 89.14 77.29 89.14 63.4 99.53 63.4" class="cls-1"/>
 <polygon points="132.25 70.34 119.23 70.34 119.23 63.4 130.35 63.4 130.35 56.46 119.23 56.46 119.23 49.52 131.66 49.52 131.66 42.58 112.28 42.58 112.28 77.29 132.25 77.29" class="cls-1"/>
 <polygon points="68.66 101.35 54.97 86.11 52.74 86.11 52.74 121.35 59.78 121.35 59.78 101.98 68.66 111.3 77.54 101.98 77.5 121.35 84.53 121.35 84.53 86.11 82.35 86.11" class="cls-1"/>
 <path transform="translate(-2717.7 -2028.1)" class="cls-1" d="m2825.8 2114.2c-23.88 0-23.88 35.77 0 35.77s23.8-35.8 0-35.8zm0 28.59c-13.88 0-13.88-21.45 0-21.45s13.8 21.4 0 21.4z"/>
 <rect y="86.65" x="165.37" height="34.7" class="cls-1" width="6.94"/>
 <polygon points="185.07 114.41 185.07 107.47 196.19 107.47 196.19 100.53 185.07 100.53 185.07 93.59 197.5 93.59 197.5 86.65 178.13 86.65 178.13 121.35 198.09 121.35 198.09 114.41" class="cls-1"/>
 <path transform="translate(-2717.7 -2028.1)" class="cls-1" d="m2780.8 2158.8h-10.34v34.7h10.34c23.1 0 23.1-34.7 0-34.7zm0 27.76h-3.4v-20.82h3.4c13.5 0 13.5 20.8 0 20.8z"/>
 <path transform="translate(-2717.7 -2028.1)" class="cls-1" d="m2824 2176.1c2.18-1.5 3.11-4.22 3.2-6.84 0.15-6.12-3.69-10.53-9.85-10.53h-13.74v34.75h13.74a10.32 10.32 0 0 0 10.24 -10.44 8.43 8.43 0 0 0 -3.6 -6.9zm-13.4-10.44h6.17a3.51 3.51 0 0 1 0 7h-6.17v-7zm6.17 20.87h-6.17v-6.94h6.17a3.41 3.41 0 0 1 3.49 3.45 3.45 3.45 0 0 1 -3.5 3.4z"/>
 <polygon points="144.01 105.38 134.87 86.65 126.86 86.65 143.23 122.08 144.79 122.08 161.15 86.65 153.14 86.65" class="cls-1"/>
</svg>
